<svg width="21" height="91" viewBox="0 0 21 91" fill="none" xmlns="http://www.w3.org/2000/svg">
<path d="M9 89.67V88.746H16V89.67H9ZM7.768 89.208C7.768 89.3947 7.70733 89.5533 7.586 89.684C7.45533 89.8053 7.29667 89.866 7.11 89.866C6.92333 89.866 6.76933 89.8053 6.648 89.684C6.51733 89.5533 6.452 89.3947 6.452 89.208C6.452 89.0213 6.51733 88.8673 6.648 88.746C6.76933 88.6153 6.92333 88.55 7.11 88.55C7.29667 88.55 7.45533 88.6153 7.586 88.746C7.70733 88.8673 7.768 89.0213 7.768 89.208ZM9 87.068V85.808H7.04V84.884H9V83.008H9.84V84.884H14.04C14.7867 84.884 15.16 84.5386 15.16 83.848V82.868H16V83.96C16 84.5666 15.846 85.0286 15.538 85.346C15.2207 85.654 14.7587 85.808 14.152 85.808H9.84V87.068H9ZM6.2 80.5596V79.4396L9.49 80.4896V81.2596L6.2 80.5596ZM16.098 75.1696C16.098 76.0283 15.9113 76.6676 15.538 77.0876C15.1553 77.5076 14.6327 77.7549 13.97 77.8296V76.8776C14.3993 76.8123 14.7167 76.6583 14.922 76.4156C15.1273 76.1636 15.23 75.7483 15.23 75.1696C15.23 74.5256 15.132 74.0823 14.936 73.8396C14.74 73.5876 14.4647 73.4616 14.11 73.4616C13.802 73.4616 13.5687 73.5689 13.41 73.7836C13.242 73.9889 13.1113 74.2503 13.018 74.5676C12.9153 74.8756 12.8267 75.2116 12.752 75.5756C12.6773 75.9396 12.57 76.2803 12.43 76.5976C12.29 76.9056 12.0987 77.1669 11.856 77.3816C11.604 77.5869 11.2587 77.6896 10.82 77.6896C10.2693 77.6896 9.812 77.4843 9.448 77.0736C9.084 76.6536 8.902 76.0189 8.902 75.1696C8.902 74.3763 9.08867 73.7789 9.462 73.3776C9.826 72.9669 10.302 72.7243 10.89 72.6496V73.6016C10.5353 73.6763 10.26 73.8303 10.064 74.0636C9.868 74.2876 9.77 74.6563 9.77 75.1696C9.77 75.7483 9.868 76.1543 10.064 76.3876C10.2507 76.6209 10.5027 76.7376 10.82 76.7376C11.1 76.7376 11.3147 76.6349 11.464 76.4296C11.604 76.2149 11.7207 75.9536 11.814 75.6456C11.898 75.3283 11.9773 74.9876 12.052 74.6236C12.1267 74.2596 12.2387 73.9236 12.388 73.6156C12.5373 73.2983 12.7473 73.0369 13.018 72.8316C13.2793 72.6169 13.6433 72.5096 14.11 72.5096C14.6887 72.5096 15.1647 72.7243 15.538 73.1536C15.9113 73.5829 16.098 74.2549 16.098 75.1696ZM9 67.0463V66.3323L10.148 66.2203C9.74667 65.9963 9.43867 65.6977 9.224 65.3243C9.00933 64.9417 8.902 64.517 8.902 64.0503C8.902 63.5463 9.01867 63.1077 9.252 62.7343C9.48533 62.361 9.83533 62.0763 10.302 61.8803C9.854 61.6657 9.50867 61.3577 9.266 60.9563C9.02333 60.5457 8.902 60.0743 8.902 59.5423C8.902 59.1783 8.96267 58.847 9.084 58.5483C9.20533 58.2497 9.392 57.993 9.644 57.7783C9.88667 57.5637 10.19 57.4003 10.554 57.2883C10.9087 57.167 11.324 57.1063 11.8 57.1063H16V58.0303H11.8C11.128 58.0303 10.624 58.1843 10.288 58.4923C9.94267 58.8003 9.77 59.2203 9.77 59.7523C9.77 60.0043 9.81667 60.2423 9.91 60.4663C10.0033 60.681 10.1387 60.8723 10.316 61.0403C10.484 61.2083 10.6893 61.3437 10.932 61.4463C11.1653 61.549 11.4267 61.605 11.716 61.6143H11.8H16V62.5383H11.8C11.128 62.5383 10.624 62.6923 10.288 63.0003C9.94267 63.3083 9.77 63.7283 9.77 64.2603C9.77 64.5123 9.81667 64.7503 9.91 64.9743C10.0033 65.189 10.1387 65.3803 10.316 65.5483C10.484 65.7163 10.6893 65.8517 10.932 65.9543C11.1653 66.057 11.4267 66.113 11.716 66.1223H16V67.0463H9ZM16.098 52.2063C16.098 53.1303 15.818 53.863 15.258 54.4043C14.6887 54.9457 13.872 55.2163 12.808 55.2163H12.192C11.1373 55.2163 10.3253 54.9457 9.756 54.4043C9.18667 53.8537 8.902 53.121 8.902 52.2063C8.902 51.2917 9.18667 50.5637 9.756 50.0223C10.3253 49.4717 11.1373 49.1963 12.192 49.1963H12.766V54.2643H12.808C13.62 54.2643 14.2267 54.0777 14.628 53.7043C15.0293 53.331 15.23 52.8317 15.23 52.2063C15.23 51.6277 15.1087 51.189 14.866 50.8903C14.6233 50.5823 14.32 50.3583 13.956 50.2183V49.2663C14.2547 49.341 14.5347 49.453 14.796 49.6023C15.0573 49.7517 15.286 49.9477 15.482 50.1903C15.6687 50.433 15.818 50.7223 15.93 51.0583C16.042 51.3943 16.098 51.777 16.098 52.2063ZM9.77 52.2063C9.77 52.813 9.96133 53.2983 10.344 53.6623C10.7173 54.017 11.254 54.2177 11.954 54.2643V50.1623C11.226 50.1997 10.68 50.405 10.316 50.7783C9.952 51.1423 9.77 51.6183 9.77 52.2063ZM10.442 46.6758C10.442 46.8998 10.3673 47.0864 10.218 47.2358C10.0687 47.3758 9.88667 47.4458 9.672 47.4458C9.45733 47.4458 9.27533 47.3758 9.126 47.2358C8.97667 47.0864 8.902 46.8998 8.902 46.6758C8.902 46.4518 8.97667 46.2698 9.126 46.1298C9.27533 45.9804 9.45733 45.9058 9.672 45.9058C9.88667 45.9058 10.0687 45.9804 10.218 46.1298C10.3673 46.2698 10.442 46.4518 10.442 46.6758ZM16.098 46.6758C16.098 46.8998 16.0233 47.0864 15.874 47.2358C15.7247 47.3758 15.5427 47.4458 15.328 47.4458C15.1133 47.4458 14.9313 47.3758 14.782 47.2358C14.6327 47.0864 14.558 46.8998 14.558 46.6758C14.558 46.4518 14.6327 46.2698 14.782 46.1298C14.9313 45.9804 15.1133 45.9058 15.328 45.9058C15.5427 45.9058 15.7247 45.9804 15.874 46.1298C16.0233 46.2698 16.098 46.4518 16.098 46.6758ZM12.5 40.5998C12.9853 40.5998 13.452 40.6371 13.9 40.7118C14.3387 40.7864 14.754 40.8844 15.146 41.0058C15.5287 41.1271 15.8833 41.2671 16.21 41.4258C16.546 41.5751 16.8493 41.7338 17.12 41.9018C17.7547 42.2751 18.3147 42.7091 18.8 43.2038V44.3798C18.3147 43.8571 17.7547 43.3951 17.12 42.9938C16.8493 42.8164 16.546 42.6484 16.21 42.4898C15.8833 42.3218 15.5287 42.1724 15.146 42.0418C14.754 41.9111 14.3387 41.8084 13.9 41.7338C13.452 41.6498 12.9853 41.6078 12.5 41.6078C12.0053 41.6078 11.5387 41.6498 11.1 41.7338C10.6613 41.8084 10.2507 41.9111 9.868 42.0418C9.476 42.1724 9.11667 42.3218 8.79 42.4898C8.454 42.6484 8.15067 42.8164 7.88 42.9938C7.236 43.3951 6.676 43.8571 6.2 44.3798V43.1758C6.676 42.6904 7.236 42.2611 7.88 41.8878C8.15067 41.7291 8.454 41.5751 8.79 41.4258C9.11667 41.2671 9.476 41.1271 9.868 41.0058C10.2507 40.8844 10.6613 40.7864 11.1 40.7118C11.5387 40.6371 12.0053 40.5998 12.5 40.5998Z" fill="#222222" fill-opacity="0.8"/>
<path d="M16 28.5C16.3333 21.3333 14.8 5.8 6 1M6 1L6.17881 1.07152C7.71218 1.68487 9.34851 2 11 2V2M6 1L6.5 3L7 5" stroke="#222222" stroke-width="0.8"/>
</svg>
